<svg xmlns="http://www.w3.org/2000/svg" width="126.578" height="189.978" viewBox="0 0 126.578 189.978">
  <path id="Path_1422" data-name="Path 1422" d="M713.777,357.207c-3.624.542-7.422,1.152-10.314,3.395a38.917,38.917,0,0,0-3.135,3.013c-5.744,5.576-13.853,7.819-20.826,11.755a9.155,9.155,0,0,0-2.96,2.327c-.763,1.06-1.152,2.411-1.953,3.463-.931,1.221-2.4,1.983-3.128,3.334s-.564,2.784-.641,4.219c-.175,3.151-1.365,6.141-2.289,9.154C664.3,412.292,666.618,428.38,660.21,442a6.2,6.2,0,0,0,3.372,3.524,19.146,19.146,0,0,0,5,1.076l14.2,1.762c2.029.252,4.18.488,6.034-.359a70.894,70.894,0,0,0-3.578,14.441,71.917,71.917,0,0,1-1.6,8.941c-1.953,6.713-6.866,12.3-12.686,16.127a4.691,4.691,0,0,0-1.793,1.655c-.763,1.526.366,3.234,1.167,4.73,2.327,4.333,2.006,9.536,1.976,14.448s.465,10.306,3.9,13.83c2.029,2.083,4.806,3.212,7.506,4.287l22.206,8.872a77.387,77.387,0,0,0,11.305,3.814c5.851,1.335,11.931,1.282,17.934,1.022q5.95-.252,11.885-.763a9.246,9.246,0,0,0,4.493-1.182,8.39,8.39,0,0,0,2.632-3.57c3.089-6.721,4.127-14.563,8.918-20.193,3.288-3.868,8.391-6.957,8.765-12.015.175-2.517-.946-4.966-.961-7.491,0-3.1,1.625-6.057,1.526-9.154-.206-5.042-4.958-8.887-5.714-13.876-1.922-12.648,4.5-25.281,8.445-37.448.709-2.174,1.625-4.577,3.715-5.508s5.035-.442,5.782-2.5c1.884-5.172,2.334-11.237,2.09-16.737-.137-3.181-1.266-6.293-1.137-9.482.092-2.243.809-4.424,1-6.66.29-3.379-.6-6.736-1.526-10a15.665,15.665,0,0,0-1.19-3.372,16.019,16.019,0,0,0-1.983-2.723l-3.715-4.417c-1.739-2.067-3.578-4.211-6.1-5.256-.816-2.022-3.425-3.418-5.294-4.531a54.253,54.253,0,0,0-5.828-2.861l-21.009-9.276a8.6,8.6,0,0,0-2.495-.809,8.078,8.078,0,0,0-3.707.763C727.333,353.652,720.642,356.184,713.777,357.207Z" transform="translate(-660.21 -350.344)" fill="#6c63ff"/>
</svg>
